<mxfile host="app.diagrams.net" modified="2023-04-26T16:13:14.912Z" agent="Mozilla/5.0 (Windows NT 10.0; Win64; x64) AppleWebKit/537.36 (KHTML, like Gecko) Chrome/112.0.0.0 Safari/537.36" etag="KyaPTCCW2zAzJDBuPTGa" version="21.1.5" type="device">
  <diagram id="C5RBs43oDa-KdzZeNtuy" name="Page-1">
    <mxGraphModel dx="880" dy="484" grid="1" gridSize="10" guides="1" tooltips="1" connect="1" arrows="1" fold="1" page="1" pageScale="1" pageWidth="827" pageHeight="1169" math="0" shadow="0">
      <root>
        <mxCell id="WIyWlLk6GJQsqaUBKTNV-0" />
        <mxCell id="WIyWlLk6GJQsqaUBKTNV-1" parent="WIyWlLk6GJQsqaUBKTNV-0" />
        <mxCell id="WIyWlLk6GJQsqaUBKTNV-4" value="Yes" style="rounded=0;html=1;jettySize=auto;orthogonalLoop=1;fontSize=11;endArrow=block;endFill=0;endSize=8;strokeWidth=1;shadow=0;labelBackgroundColor=none;edgeStyle=orthogonalEdgeStyle;" parent="WIyWlLk6GJQsqaUBKTNV-1" source="WIyWlLk6GJQsqaUBKTNV-6" target="WIyWlLk6GJQsqaUBKTNV-10" edge="1">
          <mxGeometry y="20" relative="1" as="geometry">
            <mxPoint as="offset" />
          </mxGeometry>
        </mxCell>
        <mxCell id="WIyWlLk6GJQsqaUBKTNV-5" value="No" style="edgeStyle=orthogonalEdgeStyle;rounded=0;html=1;jettySize=auto;orthogonalLoop=1;fontSize=11;endArrow=block;endFill=0;endSize=8;strokeWidth=1;shadow=0;labelBackgroundColor=none;" parent="WIyWlLk6GJQsqaUBKTNV-1" source="WIyWlLk6GJQsqaUBKTNV-6" target="WIyWlLk6GJQsqaUBKTNV-7" edge="1">
          <mxGeometry y="10" relative="1" as="geometry">
            <mxPoint as="offset" />
          </mxGeometry>
        </mxCell>
        <mxCell id="WIyWlLk6GJQsqaUBKTNV-6" value="&lt;br&gt;&lt;br&gt;First Name is following&amp;nbsp;&lt;br&gt;&lt;p class=&quot;MsoNormal&quot;&gt;&lt;b&gt;SRS_Register_001&amp;nbsp;&lt;/b&gt;&lt;/p&gt;&lt;p class=&quot;MsoNormal&quot;&gt;&lt;b&gt;bulleted no 1,2,3&lt;/b&gt;&lt;/p&gt;&lt;p class=&quot;MsoNormal&quot;&gt;&lt;b&gt;&lt;br&gt;&lt;/b&gt;&lt;/p&gt;" style="rhombus;whiteSpace=wrap;html=1;shadow=0;fontFamily=Helvetica;fontSize=12;align=center;strokeWidth=1;spacing=6;spacingTop=-4;" parent="WIyWlLk6GJQsqaUBKTNV-1" vertex="1">
          <mxGeometry x="260" y="110" width="250" height="160" as="geometry" />
        </mxCell>
        <mxCell id="nmcJUiQuYYpAIFXJ-p_z-45" style="edgeStyle=orthogonalEdgeStyle;rounded=0;orthogonalLoop=1;jettySize=auto;html=1;entryX=0;entryY=0.5;entryDx=0;entryDy=0;entryPerimeter=0;" parent="WIyWlLk6GJQsqaUBKTNV-1" source="WIyWlLk6GJQsqaUBKTNV-7" target="nmcJUiQuYYpAIFXJ-p_z-43" edge="1">
          <mxGeometry relative="1" as="geometry" />
        </mxCell>
        <mxCell id="WIyWlLk6GJQsqaUBKTNV-7" value="show an alert&lt;br&gt;&quot;invalid data&quot;" style="rounded=1;whiteSpace=wrap;html=1;fontSize=12;glass=0;strokeWidth=1;shadow=0;" parent="WIyWlLk6GJQsqaUBKTNV-1" vertex="1">
          <mxGeometry x="550" y="355" width="140" height="60" as="geometry" />
        </mxCell>
        <mxCell id="WIyWlLk6GJQsqaUBKTNV-9" value="No" style="edgeStyle=orthogonalEdgeStyle;rounded=0;html=1;jettySize=auto;orthogonalLoop=1;fontSize=11;endArrow=block;endFill=0;endSize=8;strokeWidth=1;shadow=0;labelBackgroundColor=none;entryX=0;entryY=0.5;entryDx=0;entryDy=0;" parent="WIyWlLk6GJQsqaUBKTNV-1" source="WIyWlLk6GJQsqaUBKTNV-10" target="WIyWlLk6GJQsqaUBKTNV-7" edge="1">
          <mxGeometry y="10" relative="1" as="geometry">
            <mxPoint as="offset" />
            <mxPoint x="460" y="375" as="targetPoint" />
          </mxGeometry>
        </mxCell>
        <mxCell id="WIyWlLk6GJQsqaUBKTNV-10" value="&amp;nbsp;LastName is following&amp;nbsp;&lt;br style=&quot;border-color: var(--border-color);&quot;&gt;&lt;p style=&quot;border-color: var(--border-color);&quot; class=&quot;MsoNormal&quot;&gt;&lt;b style=&quot;border-color: var(--border-color);&quot;&gt;SRS_Register_001&amp;nbsp;&lt;/b&gt;&lt;/p&gt;&lt;p style=&quot;border-color: var(--border-color);&quot; class=&quot;MsoNormal&quot;&gt;&lt;b style=&quot;border-color: var(--border-color);&quot;&gt;bulleted&amp;nbsp; no 4,5,6&lt;/b&gt;&lt;/p&gt;" style="rhombus;whiteSpace=wrap;html=1;shadow=0;fontFamily=Helvetica;fontSize=12;align=center;strokeWidth=1;spacing=6;spacingTop=-4;" parent="WIyWlLk6GJQsqaUBKTNV-1" vertex="1">
          <mxGeometry x="270" y="310" width="230" height="170" as="geometry" />
        </mxCell>
        <mxCell id="nmcJUiQuYYpAIFXJ-p_z-10" style="edgeStyle=orthogonalEdgeStyle;rounded=0;orthogonalLoop=1;jettySize=auto;html=1;exitX=0.5;exitY=1;exitDx=0;exitDy=0;exitPerimeter=0;entryX=0.5;entryY=0;entryDx=0;entryDy=0;" parent="WIyWlLk6GJQsqaUBKTNV-1" source="nmcJUiQuYYpAIFXJ-p_z-0" target="WIyWlLk6GJQsqaUBKTNV-6" edge="1">
          <mxGeometry relative="1" as="geometry" />
        </mxCell>
        <mxCell id="nmcJUiQuYYpAIFXJ-p_z-0" value="" style="verticalLabelPosition=bottom;verticalAlign=top;html=1;shape=mxgraph.flowchart.on-page_reference;fillColor=#000000;" parent="WIyWlLk6GJQsqaUBKTNV-1" vertex="1">
          <mxGeometry x="375" y="50" width="20" height="20" as="geometry" />
        </mxCell>
        <mxCell id="nmcJUiQuYYpAIFXJ-p_z-5" value="&lt;br style=&quot;border-color: var(--border-color);&quot;&gt;validate_Register_data&lt;br style=&quot;border-color: var(--border-color);&quot;&gt;($first_name,$last_name,&lt;br style=&quot;border-color: var(--border-color);&quot;&gt;$email,$password,&lt;br style=&quot;border-color: var(--border-color);&quot;&gt;$confirm_password)" style="rounded=1;whiteSpace=wrap;html=1;" parent="WIyWlLk6GJQsqaUBKTNV-1" vertex="1">
          <mxGeometry x="540" y="40" width="220" height="80" as="geometry" />
        </mxCell>
        <mxCell id="nmcJUiQuYYpAIFXJ-p_z-13" value="&amp;nbsp;Email is following&amp;nbsp;&amp;nbsp;&lt;br style=&quot;border-color: var(--border-color);&quot;&gt;&lt;p style=&quot;border-color: var(--border-color);&quot; class=&quot;MsoNormal&quot;&gt;&lt;b style=&quot;border-color: var(--border-color);&quot;&gt;SRS_Register_001&amp;nbsp;&lt;/b&gt;&lt;/p&gt;&lt;p style=&quot;border-color: var(--border-color);&quot; class=&quot;MsoNormal&quot;&gt;&lt;b style=&quot;border-color: var(--border-color);&quot;&gt;bulleted no 7,8&lt;/b&gt;&lt;/p&gt;" style="rhombus;whiteSpace=wrap;html=1;shadow=0;fontFamily=Helvetica;fontSize=12;align=center;strokeWidth=1;spacing=6;spacingTop=-4;" parent="WIyWlLk6GJQsqaUBKTNV-1" vertex="1">
          <mxGeometry x="270" y="520" width="230" height="180" as="geometry" />
        </mxCell>
        <mxCell id="nmcJUiQuYYpAIFXJ-p_z-14" value="Paasword is following&amp;nbsp;&amp;nbsp;&lt;br style=&quot;border-color: var(--border-color);&quot;&gt;&lt;p style=&quot;border-color: var(--border-color);&quot; class=&quot;MsoNormal&quot;&gt;&lt;b style=&quot;border-color: var(--border-color);&quot;&gt;SRS_Register_001&amp;nbsp;&lt;/b&gt;&lt;/p&gt;&lt;p style=&quot;border-color: var(--border-color);&quot; class=&quot;MsoNormal&quot;&gt;&lt;b style=&quot;border-color: var(--border-color);&quot;&gt;bulleted no 9,10,11,12&lt;/b&gt;&lt;/p&gt;" style="rhombus;whiteSpace=wrap;html=1;shadow=0;fontFamily=Helvetica;fontSize=12;align=center;strokeWidth=1;spacing=6;spacingTop=-4;" parent="WIyWlLk6GJQsqaUBKTNV-1" vertex="1">
          <mxGeometry x="265" y="740" width="240" height="160" as="geometry" />
        </mxCell>
        <mxCell id="nmcJUiQuYYpAIFXJ-p_z-15" value="ConfirmPassword&amp;nbsp;&lt;br&gt;is following&amp;nbsp;&lt;br style=&quot;border-color: var(--border-color);&quot;&gt;&lt;p style=&quot;border-color: var(--border-color);&quot; class=&quot;MsoNormal&quot;&gt;&lt;b style=&quot;border-color: var(--border-color);&quot;&gt;SRS_Register_001&amp;nbsp;&lt;/b&gt;&lt;/p&gt;&lt;p style=&quot;border-color: var(--border-color);&quot; class=&quot;MsoNormal&quot;&gt;&lt;b style=&quot;border-color: var(--border-color);&quot;&gt;bullted no 13&lt;/b&gt;&lt;/p&gt;" style="rhombus;whiteSpace=wrap;html=1;shadow=0;fontFamily=Helvetica;fontSize=12;align=center;strokeWidth=1;spacing=6;spacingTop=-4;" parent="WIyWlLk6GJQsqaUBKTNV-1" vertex="1">
          <mxGeometry x="282.5" y="960" width="205" height="160" as="geometry" />
        </mxCell>
        <mxCell id="nmcJUiQuYYpAIFXJ-p_z-16" style="edgeStyle=orthogonalEdgeStyle;rounded=0;orthogonalLoop=1;jettySize=auto;html=1;exitX=0.145;exitY=0.145;exitDx=0;exitDy=0;exitPerimeter=0;entryX=0.855;entryY=0.145;entryDx=0;entryDy=0;entryPerimeter=0;" parent="WIyWlLk6GJQsqaUBKTNV-1" source="nmcJUiQuYYpAIFXJ-p_z-0" target="nmcJUiQuYYpAIFXJ-p_z-0" edge="1">
          <mxGeometry relative="1" as="geometry" />
        </mxCell>
        <mxCell id="nmcJUiQuYYpAIFXJ-p_z-19" value="Yes" style="edgeStyle=orthogonalEdgeStyle;rounded=0;html=1;jettySize=auto;orthogonalLoop=1;fontSize=11;endArrow=block;endFill=0;endSize=8;strokeWidth=1;shadow=0;labelBackgroundColor=none;exitX=0.5;exitY=1;exitDx=0;exitDy=0;entryX=0.5;entryY=0;entryDx=0;entryDy=0;" parent="WIyWlLk6GJQsqaUBKTNV-1" source="WIyWlLk6GJQsqaUBKTNV-10" target="nmcJUiQuYYpAIFXJ-p_z-13" edge="1">
          <mxGeometry y="10" relative="1" as="geometry">
            <mxPoint as="offset" />
            <mxPoint x="335" y="385" as="sourcePoint" />
            <mxPoint x="470" y="385" as="targetPoint" />
          </mxGeometry>
        </mxCell>
        <mxCell id="nmcJUiQuYYpAIFXJ-p_z-21" value="Yes&lt;br&gt;" style="edgeStyle=orthogonalEdgeStyle;rounded=0;html=1;jettySize=auto;orthogonalLoop=1;fontSize=11;endArrow=block;endFill=0;endSize=8;strokeWidth=1;shadow=0;labelBackgroundColor=none;exitX=0.5;exitY=1;exitDx=0;exitDy=0;" parent="WIyWlLk6GJQsqaUBKTNV-1" source="nmcJUiQuYYpAIFXJ-p_z-13" target="nmcJUiQuYYpAIFXJ-p_z-14" edge="1">
          <mxGeometry y="10" relative="1" as="geometry">
            <mxPoint as="offset" />
            <mxPoint x="247" y="670" as="sourcePoint" />
            <mxPoint x="247" y="730" as="targetPoint" />
          </mxGeometry>
        </mxCell>
        <mxCell id="nmcJUiQuYYpAIFXJ-p_z-25" value="No" style="edgeStyle=orthogonalEdgeStyle;rounded=0;html=1;jettySize=auto;orthogonalLoop=1;fontSize=11;endArrow=block;endFill=0;endSize=8;strokeWidth=1;shadow=0;labelBackgroundColor=none;entryX=0.25;entryY=1;entryDx=0;entryDy=0;exitX=1;exitY=0.5;exitDx=0;exitDy=0;" parent="WIyWlLk6GJQsqaUBKTNV-1" source="nmcJUiQuYYpAIFXJ-p_z-13" target="WIyWlLk6GJQsqaUBKTNV-7" edge="1">
          <mxGeometry y="10" relative="1" as="geometry">
            <mxPoint as="offset" />
            <mxPoint x="330" y="590" as="sourcePoint" />
            <mxPoint x="650" y="550" as="targetPoint" />
          </mxGeometry>
        </mxCell>
        <mxCell id="nmcJUiQuYYpAIFXJ-p_z-26" value="Yes&lt;br&gt;" style="edgeStyle=orthogonalEdgeStyle;rounded=0;html=1;jettySize=auto;orthogonalLoop=1;fontSize=11;endArrow=block;endFill=0;endSize=8;strokeWidth=1;shadow=0;labelBackgroundColor=none;exitX=0.5;exitY=1;exitDx=0;exitDy=0;entryX=0.5;entryY=0;entryDx=0;entryDy=0;" parent="WIyWlLk6GJQsqaUBKTNV-1" source="nmcJUiQuYYpAIFXJ-p_z-14" target="nmcJUiQuYYpAIFXJ-p_z-15" edge="1">
          <mxGeometry y="10" relative="1" as="geometry">
            <mxPoint as="offset" />
            <mxPoint x="440" y="750" as="sourcePoint" />
            <mxPoint x="257" y="740" as="targetPoint" />
          </mxGeometry>
        </mxCell>
        <mxCell id="nmcJUiQuYYpAIFXJ-p_z-27" value="No" style="edgeStyle=orthogonalEdgeStyle;rounded=0;html=1;jettySize=auto;orthogonalLoop=1;fontSize=11;endArrow=block;endFill=0;endSize=8;strokeWidth=1;shadow=0;labelBackgroundColor=none;entryX=0.5;entryY=1;entryDx=0;entryDy=0;exitX=1;exitY=0.5;exitDx=0;exitDy=0;" parent="WIyWlLk6GJQsqaUBKTNV-1" source="nmcJUiQuYYpAIFXJ-p_z-14" target="WIyWlLk6GJQsqaUBKTNV-7" edge="1">
          <mxGeometry y="10" relative="1" as="geometry">
            <mxPoint as="offset" />
            <mxPoint x="335" y="600" as="sourcePoint" />
            <mxPoint x="730" y="560" as="targetPoint" />
            <Array as="points">
              <mxPoint x="620" y="820" />
            </Array>
          </mxGeometry>
        </mxCell>
        <mxCell id="nmcJUiQuYYpAIFXJ-p_z-28" value="No" style="edgeStyle=orthogonalEdgeStyle;rounded=0;html=1;jettySize=auto;orthogonalLoop=1;fontSize=11;endArrow=block;endFill=0;endSize=8;strokeWidth=1;shadow=0;labelBackgroundColor=none;entryX=0.75;entryY=1;entryDx=0;entryDy=0;" parent="WIyWlLk6GJQsqaUBKTNV-1" source="nmcJUiQuYYpAIFXJ-p_z-15" target="WIyWlLk6GJQsqaUBKTNV-7" edge="1">
          <mxGeometry y="10" relative="1" as="geometry">
            <mxPoint as="offset" />
            <mxPoint x="335" y="600" as="sourcePoint" />
            <mxPoint x="685" y="580" as="targetPoint" />
          </mxGeometry>
        </mxCell>
        <mxCell id="nmcJUiQuYYpAIFXJ-p_z-39" style="edgeStyle=orthogonalEdgeStyle;rounded=0;orthogonalLoop=1;jettySize=auto;html=1;" parent="WIyWlLk6GJQsqaUBKTNV-1" source="nmcJUiQuYYpAIFXJ-p_z-33" edge="1">
          <mxGeometry relative="1" as="geometry">
            <mxPoint x="135" y="990" as="targetPoint" />
          </mxGeometry>
        </mxCell>
        <mxCell id="nmcJUiQuYYpAIFXJ-p_z-33" value="The password is hashed" style="rounded=0;whiteSpace=wrap;html=1;" parent="WIyWlLk6GJQsqaUBKTNV-1" vertex="1">
          <mxGeometry x="75" y="830" width="120" height="70" as="geometry" />
        </mxCell>
        <mxCell id="nmcJUiQuYYpAIFXJ-p_z-36" value="Yes&lt;br&gt;" style="edgeStyle=orthogonalEdgeStyle;rounded=0;html=1;jettySize=auto;orthogonalLoop=1;fontSize=11;endArrow=block;endFill=0;endSize=8;strokeWidth=1;shadow=0;labelBackgroundColor=none;exitX=0;exitY=0.5;exitDx=0;exitDy=0;entryX=1;entryY=0.5;entryDx=0;entryDy=0;" parent="WIyWlLk6GJQsqaUBKTNV-1" source="nmcJUiQuYYpAIFXJ-p_z-15" target="nmcJUiQuYYpAIFXJ-p_z-33" edge="1">
          <mxGeometry y="10" relative="1" as="geometry">
            <mxPoint as="offset" />
            <mxPoint x="319" y="970" as="sourcePoint" />
            <mxPoint x="310" y="830" as="targetPoint" />
            <Array as="points">
              <mxPoint x="270" y="1040" />
              <mxPoint x="270" y="865" />
            </Array>
          </mxGeometry>
        </mxCell>
        <mxCell id="nmcJUiQuYYpAIFXJ-p_z-43" value="" style="verticalLabelPosition=bottom;verticalAlign=top;html=1;shape=mxgraph.flowchart.on-page_reference;fillColor=#000000;" parent="WIyWlLk6GJQsqaUBKTNV-1" vertex="1">
          <mxGeometry x="730" y="375" width="20" height="20" as="geometry" />
        </mxCell>
        <mxCell id="apiObIemdP6z4C0vwrQw-14" style="edgeStyle=orthogonalEdgeStyle;rounded=0;orthogonalLoop=1;jettySize=auto;html=1;entryX=0.5;entryY=0;entryDx=0;entryDy=0;" edge="1" parent="WIyWlLk6GJQsqaUBKTNV-1" source="apiObIemdP6z4C0vwrQw-1" target="apiObIemdP6z4C0vwrQw-13">
          <mxGeometry relative="1" as="geometry" />
        </mxCell>
        <mxCell id="apiObIemdP6z4C0vwrQw-1" value="save data in the database" style="rounded=0;whiteSpace=wrap;html=1;" vertex="1" parent="WIyWlLk6GJQsqaUBKTNV-1">
          <mxGeometry x="75" y="990" width="120" height="70" as="geometry" />
        </mxCell>
        <mxCell id="apiObIemdP6z4C0vwrQw-9" style="edgeStyle=orthogonalEdgeStyle;rounded=0;orthogonalLoop=1;jettySize=auto;html=1;" edge="1" parent="WIyWlLk6GJQsqaUBKTNV-1" source="apiObIemdP6z4C0vwrQw-2" target="apiObIemdP6z4C0vwrQw-8">
          <mxGeometry relative="1" as="geometry" />
        </mxCell>
        <mxCell id="apiObIemdP6z4C0vwrQw-2" value="call&amp;nbsp;&lt;br&gt;redirectToViewAccount($clientid)" style="rounded=0;whiteSpace=wrap;html=1;" vertex="1" parent="WIyWlLk6GJQsqaUBKTNV-1">
          <mxGeometry x="42.5" y="1300" width="185" height="60" as="geometry" />
        </mxCell>
        <mxCell id="apiObIemdP6z4C0vwrQw-12" style="edgeStyle=orthogonalEdgeStyle;rounded=0;orthogonalLoop=1;jettySize=auto;html=1;entryX=0.5;entryY=0;entryDx=0;entryDy=0;" edge="1" parent="WIyWlLk6GJQsqaUBKTNV-1" source="apiObIemdP6z4C0vwrQw-7" target="apiObIemdP6z4C0vwrQw-11">
          <mxGeometry relative="1" as="geometry" />
        </mxCell>
        <mxCell id="apiObIemdP6z4C0vwrQw-7" value="save client first name&lt;br&gt;in session" style="rounded=0;whiteSpace=wrap;html=1;" vertex="1" parent="WIyWlLk6GJQsqaUBKTNV-1">
          <mxGeometry x="75" y="1530" width="120" height="70" as="geometry" />
        </mxCell>
        <mxCell id="apiObIemdP6z4C0vwrQw-10" style="edgeStyle=orthogonalEdgeStyle;rounded=0;orthogonalLoop=1;jettySize=auto;html=1;entryX=0.5;entryY=0;entryDx=0;entryDy=0;" edge="1" parent="WIyWlLk6GJQsqaUBKTNV-1" source="apiObIemdP6z4C0vwrQw-8" target="apiObIemdP6z4C0vwrQw-7">
          <mxGeometry relative="1" as="geometry" />
        </mxCell>
        <mxCell id="apiObIemdP6z4C0vwrQw-8" value="save client ID in session" style="rounded=0;whiteSpace=wrap;html=1;" vertex="1" parent="WIyWlLk6GJQsqaUBKTNV-1">
          <mxGeometry x="75" y="1410" width="120" height="70" as="geometry" />
        </mxCell>
        <mxCell id="apiObIemdP6z4C0vwrQw-11" value="" style="ellipse;html=1;shape=endState;fillColor=#000000;strokeColor=#ff0000;" vertex="1" parent="WIyWlLk6GJQsqaUBKTNV-1">
          <mxGeometry x="120" y="1650" width="30" height="30" as="geometry" />
        </mxCell>
        <mxCell id="apiObIemdP6z4C0vwrQw-15" style="edgeStyle=orthogonalEdgeStyle;rounded=0;orthogonalLoop=1;jettySize=auto;html=1;entryX=0.5;entryY=0;entryDx=0;entryDy=0;" edge="1" parent="WIyWlLk6GJQsqaUBKTNV-1" source="apiObIemdP6z4C0vwrQw-13" target="apiObIemdP6z4C0vwrQw-2">
          <mxGeometry relative="1" as="geometry" />
        </mxCell>
        <mxCell id="apiObIemdP6z4C0vwrQw-18" style="edgeStyle=orthogonalEdgeStyle;rounded=0;orthogonalLoop=1;jettySize=auto;html=1;entryX=0;entryY=0.5;entryDx=0;entryDy=0;" edge="1" parent="WIyWlLk6GJQsqaUBKTNV-1" source="apiObIemdP6z4C0vwrQw-13" target="apiObIemdP6z4C0vwrQw-17">
          <mxGeometry relative="1" as="geometry" />
        </mxCell>
        <mxCell id="apiObIemdP6z4C0vwrQw-13" value="if data is successfully saved" style="rhombus;whiteSpace=wrap;html=1;" vertex="1" parent="WIyWlLk6GJQsqaUBKTNV-1">
          <mxGeometry x="87" y="1120" width="96" height="150" as="geometry" />
        </mxCell>
        <mxCell id="apiObIemdP6z4C0vwrQw-16" value="Yes" style="text;html=1;align=center;verticalAlign=middle;resizable=0;points=[];autosize=1;strokeColor=none;fillColor=none;" vertex="1" parent="WIyWlLk6GJQsqaUBKTNV-1">
          <mxGeometry x="140" y="1255" width="40" height="30" as="geometry" />
        </mxCell>
        <mxCell id="apiObIemdP6z4C0vwrQw-20" style="edgeStyle=orthogonalEdgeStyle;rounded=0;orthogonalLoop=1;jettySize=auto;html=1;" edge="1" parent="WIyWlLk6GJQsqaUBKTNV-1" source="apiObIemdP6z4C0vwrQw-17" target="apiObIemdP6z4C0vwrQw-19">
          <mxGeometry relative="1" as="geometry" />
        </mxCell>
        <mxCell id="apiObIemdP6z4C0vwrQw-17" value="display error" style="rounded=0;whiteSpace=wrap;html=1;" vertex="1" parent="WIyWlLk6GJQsqaUBKTNV-1">
          <mxGeometry x="302.5" y="1190" width="185" height="60" as="geometry" />
        </mxCell>
        <mxCell id="apiObIemdP6z4C0vwrQw-19" value="" style="ellipse;html=1;shape=endState;fillColor=#000000;strokeColor=#ff0000;" vertex="1" parent="WIyWlLk6GJQsqaUBKTNV-1">
          <mxGeometry x="380" y="1350" width="30" height="30" as="geometry" />
        </mxCell>
        <mxCell id="apiObIemdP6z4C0vwrQw-21" value="No" style="text;html=1;align=center;verticalAlign=middle;resizable=0;points=[];autosize=1;strokeColor=none;fillColor=none;" vertex="1" parent="WIyWlLk6GJQsqaUBKTNV-1">
          <mxGeometry x="200" y="1165" width="40" height="30" as="geometry" />
        </mxCell>
      </root>
    </mxGraphModel>
  </diagram>
</mxfile>
